<svg width="29" height="29" viewBox="0 0 29 29" fill="none" xmlns="http://www.w3.org/2000/svg">
<g id="akar-icons:twitter-fill">
<rect width="29" height="29" fill="white" fill-opacity="0.69"/>
<g id="Group">
<path id="Vector" d="M28.5686 5.96549C27.5597 6.41258 26.4758 6.71466 25.3364 6.8512C26.5121 6.1477 27.3917 5.04047 27.811 3.73612C26.7064 4.39223 25.4975 4.85406 24.2368 5.10153C23.389 4.19633 22.2661 3.59634 21.0423 3.39473C19.8186 3.19312 18.5626 3.40116 17.4692 3.98655C16.3758 4.57194 15.5063 5.50193 14.9956 6.63213C14.485 7.76234 14.3617 9.02952 14.645 10.2369C12.4068 10.1246 10.2172 9.54282 8.21841 8.52946C6.21958 7.5161 4.45617 6.09377 3.04261 4.35478C2.55927 5.18853 2.28136 6.1552 2.28136 7.1847C2.28082 8.11149 2.50905 9.02408 2.94579 9.8415C3.38254 10.6589 4.0143 11.3559 4.78502 11.8706C3.89119 11.8422 3.01708 11.6007 2.23544 11.1662V11.2387C2.23535 12.5385 2.68498 13.7984 3.50804 14.8044C4.33109 15.8105 5.47688 16.5009 6.75098 16.7583C5.9218 16.9827 5.05247 17.0158 4.20865 16.855C4.56813 17.9734 5.26835 18.9515 6.2113 19.6522C7.15425 20.3529 8.29272 20.7412 9.46732 20.7627C7.47336 22.328 5.01085 23.1771 2.4759 23.1734C2.02686 23.1735 1.5782 23.1473 1.13223 23.0948C3.70535 24.7492 6.70064 25.6273 9.75973 25.6239C20.1151 25.6239 25.7762 17.0471 25.7762 9.60862C25.7762 9.36695 25.7701 9.12287 25.7593 8.8812C26.8604 8.08488 27.8109 7.09878 28.5662 5.96912L28.5686 5.96549Z" fill="black"/>
</g>
</g>
</svg>
