<svg width="29" height="29" viewBox="0 0 29 29" fill="none" xmlns="http://www.w3.org/2000/svg">
<g id="ant-design:youtube-filled">
<rect width="29" height="29" fill="white" fill-opacity="0.69"/>
<path id="Vector" d="M26.6579 8.38564C26.5135 7.84767 26.2302 7.35706 25.8366 6.96293C25.443 6.5688 24.9527 6.28497 24.4149 6.13984C22.4354 5.60742 14.5 5.60742 14.5 5.60742C14.5 5.60742 6.56465 5.60742 4.58506 6.13701C4.04703 6.28167 3.55653 6.56534 3.16283 6.95955C2.76912 7.35375 2.48607 7.8446 2.34209 8.38281C1.8125 10.3652 1.8125 14.5 1.8125 14.5C1.8125 14.5 1.8125 18.6348 2.34209 20.6144C2.63379 21.7075 3.49473 22.5685 4.58506 22.8602C6.56465 23.3926 14.5 23.3926 14.5 23.3926C14.5 23.3926 22.4354 23.3926 24.4149 22.8602C25.5081 22.5685 26.3662 21.7075 26.6579 20.6144C27.1875 18.6348 27.1875 14.5 27.1875 14.5C27.1875 14.5 27.1875 10.3652 26.6579 8.38564ZM11.9795 18.2949V10.7051L18.5498 14.4717L11.9795 18.2949Z" fill="black"/>
</g>
</svg>
