<svg width="29" height="29" viewBox="0 0 29 29" fill="none" xmlns="http://www.w3.org/2000/svg">
<g id="brandico:linkedin-rect" clip-path="url(#clip0_11_140)">
<rect width="29" height="29" fill="white" fill-opacity="0.69"/>
<path id="Vector" d="M5.68605 0.00732422C2.56226 0.00732422 0.00561523 2.56391 0.00561523 5.68776V23.3151C0.00561523 26.4389 2.5622 28.9946 5.68605 28.9946H23.3134C26.4373 28.9946 28.9929 26.439 28.9929 23.3151V5.68776C28.9929 2.56396 26.4373 0.00732422 23.3134 0.00732422H5.68605ZM7.11476 4.79082C8.61255 4.79082 9.53513 5.77409 9.56361 7.06659C9.56361 8.33056 8.6125 9.34147 7.08579 9.34147H7.05769C5.58841 9.34147 4.63874 8.33061 4.63874 7.06659C4.63874 5.77412 5.61714 4.79082 7.11473 4.79082H7.11476ZM20.0221 10.8318C22.9026 10.8318 25.062 12.7145 25.062 16.7604V24.3135H20.6844V17.2668C20.6844 15.4961 20.0508 14.288 18.4666 14.288C17.2571 14.288 16.5363 15.1023 16.2197 15.8889C16.1041 16.1703 16.0757 16.5633 16.0757 16.957V24.3135H11.6981C11.6981 24.3135 11.7555 12.3767 11.6981 11.1407H16.0766V13.0061C16.6583 12.1086 17.6989 10.8318 20.0221 10.8318V10.8318ZM4.89696 11.1417H9.2746V24.3135H4.89696V11.1417Z" fill="black"/>
</g>
<defs>
<clipPath id="clip0_11_140">
<rect width="29" height="29" fill="white"/>
</clipPath>
</defs>
</svg>
