<svg width="34" height="34" viewBox="0 0 34 34" fill="none" xmlns="http://www.w3.org/2000/svg">
<g id="bx:bxl-instagram">
<rect width="34" height="34" fill="white" fill-opacity="0.69"/>
<path id="Vector" d="M16.9986 10.4507C15.2613 10.4507 13.5951 11.1408 12.3666 12.3693C11.1381 13.5978 10.4479 15.264 10.4479 17.0013C10.4479 18.7387 11.1381 20.4049 12.3666 21.6334C13.5951 22.8619 15.2613 23.552 16.9986 23.552C18.7359 23.552 20.4021 22.8619 21.6306 21.6334C22.8591 20.4049 23.5493 18.7387 23.5493 17.0013C23.5493 15.264 22.8591 13.5978 21.6306 12.3693C20.4021 11.1408 18.7359 10.4507 16.9986 10.4507ZM16.9986 21.2556C15.8699 21.2556 14.7875 20.8072 13.9894 20.0091C13.1913 19.2111 12.7429 18.1286 12.7429 16.9999C12.7429 15.8713 13.1913 14.7888 13.9894 13.9907C14.7875 13.1926 15.8699 12.7443 16.9986 12.7443C18.1273 12.7443 19.2097 13.1926 20.0078 13.9907C20.8059 14.7888 21.2543 15.8713 21.2543 16.9999C21.2543 18.1286 20.8059 19.2111 20.0078 20.0091C19.2097 20.8072 18.1273 21.2556 16.9986 21.2556Z" fill="black"/>
<path id="Vector_2" d="M23.8085 11.737C24.6519 11.737 25.3357 11.0532 25.3357 10.2098C25.3357 9.36635 24.6519 8.68262 23.8085 8.68262C22.9651 8.68262 22.2813 9.36635 22.2813 10.2098C22.2813 11.0532 22.9651 11.737 23.8085 11.737Z" fill="black"/>
<path id="Vector_3" d="M29.0884 8.65749C28.7605 7.81058 28.2593 7.04147 27.617 6.39941C26.9747 5.75734 26.2054 5.25646 25.3583 4.92882C24.3671 4.55675 23.32 4.35556 22.2615 4.33382C20.8973 4.27432 20.4652 4.25732 17.0057 4.25732C13.5462 4.25732 13.1028 4.25732 11.7498 4.33382C10.6921 4.35445 9.64574 4.55568 8.65584 4.92882C7.80858 5.25608 7.03909 5.75682 6.39673 6.39894C5.75437 7.04106 5.25333 7.81036 4.92575 8.65749C4.5536 9.64861 4.35288 10.6958 4.33217 11.7543C4.27125 13.1172 4.25284 13.5492 4.25284 17.0102C4.25284 20.4697 4.25284 20.9102 4.33217 22.266C4.35342 23.3257 4.55317 24.3712 4.92575 25.3642C5.25425 26.2111 5.75577 26.9801 6.39829 27.6221C7.0408 28.2641 7.81018 28.7651 8.65726 29.0929C9.64529 29.4799 10.6921 29.6955 11.7527 29.7304C13.1169 29.7899 13.549 29.8083 17.0085 29.8083C20.468 29.8083 20.9114 29.8083 22.2643 29.7304C23.3227 29.7089 24.3698 29.5082 25.3612 29.1368C26.208 28.8084 26.9771 28.3071 27.6193 27.6649C28.2615 27.0226 28.7629 26.2536 29.0913 25.4067C29.4638 24.4151 29.6636 23.3696 29.6848 22.3099C29.7458 20.9471 29.7642 20.515 29.7642 17.0541C29.7642 13.5932 29.7642 13.154 29.6848 11.7982C29.6683 10.7248 29.4666 9.66226 29.0884 8.65749ZM27.3629 22.1612C27.3538 22.9776 27.2048 23.7864 26.9223 24.5525C26.7096 25.1034 26.3839 25.6037 25.9662 26.0211C25.5485 26.4386 25.048 26.764 24.497 26.9764C23.7394 27.2575 22.9392 27.4066 22.1312 27.417C20.7853 27.4793 20.4057 27.4949 16.9547 27.4949C13.5008 27.4949 13.1481 27.4949 11.7768 27.417C10.9692 27.4071 10.1693 27.2581 9.41234 26.9764C8.85939 26.7653 8.35692 26.4405 7.93743 26.0229C7.51794 25.6054 7.19077 25.1044 6.97709 24.5525C6.69864 23.7946 6.5497 22.9953 6.5365 22.1881C6.47559 20.8422 6.46142 20.4626 6.46142 17.0116C6.46142 13.5592 6.46142 13.2064 6.5365 11.8337C6.54566 11.0177 6.69468 10.2093 6.97709 9.44374C7.40917 8.32599 8.29459 7.44624 9.41234 7.01841C10.1697 6.73811 10.9693 6.58911 11.7768 6.57782C13.124 6.51691 13.5023 6.49991 16.9547 6.49991C20.4071 6.49991 20.7613 6.49991 22.1312 6.57782C22.9393 6.58755 23.7396 6.73659 24.497 7.01841C25.048 7.23129 25.5484 7.55703 25.966 7.9747C26.3837 8.39237 26.7095 8.89276 26.9223 9.44374C27.2008 10.2016 27.3497 11.0009 27.3629 11.8082C27.4238 13.1554 27.4394 13.5337 27.4394 16.9861C27.4394 20.4371 27.4394 20.8082 27.3785 22.1626H27.3629V22.1612Z" fill="black"/>
</g>
</svg>
